<svg viewBox="0 0 100 100" xmlns="http://www.w3.org/2000/svg" xmlns:xlink="http://www.w3.org/1999/xlink"><defs><path d="M71.64 33.6c0 .81.38 1.47.86 1.47h22.47c.47 0 .86-.66.86-1.48V16.03c0-.82-.39-1.48-.87-1.48H72.48c-.48 0-.87.66-.87 1.47Z" id="a"/><path d="M81.21 20.861l0 0c-.39-.21-.87-.06-1.07.32 -.07.11-.1.24-.1.37v6.61l-.01 0c-.01.43.34.79.78.79 .13 0 .26-.04.37-.1l6.2-3.311 0-.01c.38-.21.53-.69.32-1.07 -.08-.14-.19-.26-.33-.33Z" id="b"/></defs><path fill="#F0F2FF" d="M54.15 10a40 40 0 1 0 0 80 40 40 0 1 0 0-80Z"/><g stroke-linecap="round" stroke="#4550E5" fill="#FFF" stroke-linejoin="round"><path d="M89 26.675H24.32v-5.28l-.01 0c0-1.46 1.18-2.64 2.63-2.65h59.4l0 0c1.45 0 2.63 1.18 2.64 2.64Z"/><g fill="#D6DAFF"><path d="M28.28 21.39a1.32 1.32 0 1 0 0 2.64 1.32 1.32 0 1 0 0-2.64Z"/><path d="M33.56 21.39a1.32 1.32 0 1 0 0 2.64 1.32 1.32 0 1 0 0-2.64Z"/><path d="M38.84 21.39a1.32 1.32 0 1 0 0 2.64 1.32 1.32 0 1 0 0-2.64Z"/><path d="M89 68.915l0-.01c-.01 1.45-1.19 2.63-2.64 2.64H26.95l-.01-.001c-1.46-.01-2.64-1.19-2.64-2.64V26.66h64.68Z"/></g><path d="M55.2 52.95h28.38v12H55.19Z"/><g fill="none"><path d="M60.63 61.07l17.53 0"/><path d="M64.46 56.84l13.7 0"/></g><path d="M55.2 32.49h28.38v18.13H55.19Z"/><path d="M29.6 32.49h21.77v32.46H29.59Z"/><path fill="#D6DAFF" d="M29.6 32.49h21.77v16.76H29.6Z"/><path d="M37.26 49.253l3.53-4.95 -.01 0c.67-.95 1.98-1.16 2.93-.48 .18.13.34.29.47.47l3.53 4.94Z"/><path d="M30.227 49.253l4.6-6.15 0-.01c.69-.93 2-1.12 2.93-.43 .15.11.3.26.42.42l4.61 6.14Z"/><path d="M45.2 35.45a2.11 2.11 0 1 0 0 4.23 2.11 2.11 0 1 0 0-4.24Z"/><g fill="none"><path d="M33.64 52.61l13.7 0"/><path d="M33.64 56.84l13.7 0"/><path d="M33.64 61.07l13.7 0"/></g><g fill="#D6DAFF"><path d="M69 44.671l0-.01c1.71-2.57 1.03-6.04-1.54-7.75 -.92-.62-2-.95-3.11-.95v5.58Z"/><path d="M64.362 35.979l-.01 0c-3.09 0-5.59 2.49-5.59 5.58 0 1.12.33 2.21.96 3.14l4.61-3.15Z"/><path d="M64.362 41.56l-4.62 3.14 0 0c1.73 2.54 5.21 3.2 7.75 1.47 .58-.41 1.09-.92 1.49-1.51Z"/></g><g fill="none"><path d="M75.28 41.56l4.55 0"/><path d="M75.28 37.35l4.55 0"/><path d="M75.28 45.77l4.55 0"/></g></g><g fill="#D6DAFF"><path d="M56.77 80.35a17.6 1.65 0 1 0 0 3.3 17.6 1.65 0 1 0 0-3.3Z"/><use xlink:href="#a"/></g><use fill="none" stroke="#4550E5" stroke-linecap="round" stroke-linejoin="round" xlink:href="#a"/><use fill="#FFF" xlink:href="#b"/><g stroke-linecap="round" stroke="#4550E5" fill="none" stroke-linejoin="round"><use xlink:href="#b"/><rect width="34.65" height="18.141" x="4.16" y="39.729" rx="1.26" fill="#FFF"/><path d="M24.32 44.66l10.08 0"/><path d="M24.32 48.44l6.3 0"/><path fill="#D6DAFF" d="M20.12 48.63c0 .82-1.34 1.38-1.64 2.1 -.31.74.23 2.08-.33 2.64 -.57.56-1.9.02-2.65.32 -.73.3-1.28 1.63-2.11 1.63 -.83 0-1.39-1.34-2.1-1.64 -.75-.31-2.09.23-2.65-.33 -.57-.57-.02-1.9-.33-2.65 -.3-.72-1.64-1.28-1.64-2.1 0-.83 1.34-1.39 1.63-2.11 .31-.75-.24-2.09.32-2.65 .56-.57 1.9-.02 2.64-.33 .72-.3 1.27-1.64 2.1-1.64 .82 0 1.38 1.34 2.1 1.63 .74.3 2.08-.24 2.64.32s.02 1.9.32 2.64c.29.72 1.63 1.27 1.63 2.1Z"/><path fill="#FFF" d="M16.455 48.63v0c0 1.68-1.37 3.05-3.06 3.05s-3.06-1.37-3.06-3.06 1.36-3.06 3.05-3.06h-.01c1.68-.01 3.05 1.36 3.05 3.05Z"/></g></svg>