<svg viewBox="0 0 24 24" xmlns="http://www.w3.org/2000/svg" fill="#000091"><g><path  d="M7.375 18.718l-.875.7v-1.92 0c0-.56-.45-1-1-1h-3 -.01c-.28-.01-.5-.23-.5-.51V2.48l0 0c-.01-.28.22-.51.49-.51h16.5 -.01c.27-.01.5.22.5.49v5l0 0c0 .55.44.99 1 .99 .55-.01.99-.45.99-1.01v-5.5 0c0-1.11-.9-2-2-2H1.96l-.01 0c-1.11 0-2 .89-2 2v14.5l0-.01c-.01 1.1.89 2 1.99 2h2.5v3l0-.01c-.01.55.44 1 .99 1 .22 0 .44-.08.62-.22l2.5-2 -.01 0c.43-.35.5-.98.15-1.41 -.35-.44-.98-.51-1.41-.16Z"/><path d="M22 10H12l-.01 0c-1.11 0-2 .89-2 2v7l0 0c0 1.1.89 1.99 2 1.99h3.667l3.73 2.8 -.01-.01c.44.33 1.06.24 1.4-.2 .12-.18.2-.39.2-.6v-2.01h1l-.01-.001c1.1 0 2-.9 2-2v-7 0c0-1.11-.9-2-2-2Zm0 8.5v0c0 .27-.23.5-.5.5H20h-.01c-.56 0-1 .44-1 1v1l-2.4-1.8 0 0c-.18-.13-.39-.21-.6-.21h-3.5 -.01c-.28-.01-.5-.23-.5-.51v-6l0 0c-.01-.28.22-.51.49-.51h9 -.01c.27-.01.5.22.5.49Z"/><path d="M11.25 8.5v-.18l-.01-.01c-.01-.11.06-.21.16-.24l-.01 0c1.43-.51 2.18-2.08 1.67-3.51 -.51-1.44-2.08-2.19-3.51-1.68 -1.1.38-1.84 1.42-1.84 2.59l0 0c0 .41.33.74.75.74 .41-.01.74-.34.74-.76l0 0c-.01-.7.55-1.26 1.24-1.26 .69-.01 1.25.55 1.25 1.24 0 .53-.34 1-.84 1.17l0-.01c-.7.24-1.17.9-1.17 1.65v.17l0 0c0 .41.33.74.75.74 .41-.01.74-.34.74-.76Z"/><path d="M16.75 16.95a.75.75 0 1 0 0 1.5 .75.75 0 1 0 0-1.5Z"/><path d="M16.75 16.207h-.01c.41 0 .75-.34.75-.75v-2 0c0-.42-.34-.75-.75-.75 -.42 0-.75.33-.75.75v2l0 0c0 .41.33.74.75.74Z"/></g></svg>