<svg viewBox="0 0 100 100" xmlns="http://www.w3.org/2000/svg" xmlns:xlink="http://www.w3.org/1999/xlink"><defs><path d="M89.667 61.96l0-.01c-.01 1.39-1.13 2.51-2.52 2.52h-49.59l-.01-.001c-1.4-.01-2.52-1.13-2.52-2.53V30.09h54.62Z" id="b"/><path d="M69.221 46.541l0-.01c.46-.28.62-.87.35-1.34 -.09-.15-.21-.28-.36-.36l-10.39-6 0 0c-.47-.28-1.07-.11-1.34.35 -.09.14-.14.31-.14.48v11.99l-.001 0c-.01.54.43.97.97.97 .17 0 .34-.05.48-.14Z" id="c"/><path d="M72.282 40.6l-44.03 0 -.06 28.95 44.074 0 0-28.96Z" id="a"/></defs><path fill="#F0F2FF" d="M50 10a40 40 0 1 0 0 80 40 40 0 1 0 0-80Z" transform="rotate(-66.7041 50 50) skewX(-.00023)"/><path fill="#FFF" stroke="#4550E5" stroke-linecap="round" stroke-linejoin="round" d="M73.8 36.985H26.68h-.01c-1.16 0-2.1.94-2.1 2.1v30.48h51.319V39.08l-.001-.001c0-1.16-.95-2.1-2.1-2.1Z"/><use fill="#D6DAFF" xlink:href="#a"/><path fill="#FFF" d="M61.364 40.6l-31.1 28.95 -2.07 0 .05-28.96 33.105 0Z"/><use fill="none" stroke="#4550E5" stroke-linecap="round" stroke-linejoin="round" xlink:href="#a"/><path fill="#D6DAFF" d="M51.45 74.99a28.98 1.81 0 1 0 0 3.62 28.98 1.81 0 1 0 0-3.63Z"/><g stroke-linecap="round" stroke="#4550E5" fill="#FFF" stroke-linejoin="round"><path d="M80.433 73.18H20.05V70.6l0-.01c0-.58.47-1.05 1.05-1.05h58.27l-.01 0c.57-.01 1.05.47 1.05 1.04Z"/><path fill="#D6DAFF" d="M80.433 73.18l0-.01c-5.61 1.6-11.42 2.41-17.25 2.41h-25.9l0 0c-5.84-.01-11.64-.82-17.25-2.42h60.37Z"/></g><use fill="#D6DAFF" xlink:href="#b"/><g stroke-linecap="round" stroke="#4550E5" fill="none" stroke-linejoin="round"><use xlink:href="#b"/><path fill="#FFF" d="M89.667 30.12H35.046v-6.18l-.01 0c0-1.4 1.12-2.52 2.51-2.53h49.58l-.01-.001c1.39 0 2.51 1.12 2.52 2.51Z"/><g fill="#D6DAFF"><path d="M39.39 24.32a1.44 1.44 0 1 0 0 2.89 1.44 1.44 0 1 0 0-2.9Z"/><path d="M45.18 24.32a1.44 1.44 0 1 0 0 2.89 1.44 1.44 0 1 0 0-2.9Z"/><path d="M50.98 24.32a1.44 1.44 0 1 0 0 2.89 1.44 1.44 0 1 0 0-2.9Z"/></g><path d="M41.37 58.97l42 0"/></g><g fill="#FFF"><use xlink:href="#c"/><path fill="#FFF" stroke="#4550E5" stroke-linecap="round" stroke-linejoin="round" d="M49.78 60.542l0 0c0 .86-.71 1.57-1.58 1.57 -.87 0-1.58-.71-1.58-1.58 0-.01 0-.01 0-.01v-3.15l0 0c-.01-.87.7-1.58 1.57-1.58 .86-.01 1.57.7 1.57 1.57 0 0 0 0 0 0Z"/></g><use fill="none" stroke="#4550E5" stroke-linecap="round" stroke-linejoin="round" xlink:href="#c"/></svg>