<svg viewBox="0 0 100 112" xmlns="http://www.w3.org/2000/svg" xmlns:xlink="http://www.w3.org/1999/xlink"><defs><path d="M46.43 21.74a7.24 7.24 0 1 0 0 14.48 7.24 7.24 0 1 0 0-14.48Z" id="b"/><path d="M44.63 49.17h28.13v21.26H44.63Z" id="a"/></defs><path fill="#F0F2FF" d="M50 16a40 40 0 1 0 0 80 40 40 0 1 0 0-80Z"/><path fill="#D6DAFF" d="M55.29 85.74a15.32 1.81 0 1 0 0 3.62 15.32 1.81 0 1 0 0-3.62Z"/><rect width="40.29" height="21.26" x="38.55" y="49.17" rx="3.04" fill="#FFF" stroke="#4550E5" stroke-linecap="round" stroke-linejoin="round" transform="rotate(-61.2604 58.681 59.8018) skewX(-.00028)"/><use fill="#D6DAFF" transform="matrix(.48098-.87673.87672.48098-21.97 82.5)" xlink:href="#a"/><path fill="#FFF" d="M44.09 64.3l29.96-12.12 -17.92-9.82L44.09 64.3Z"/><g stroke-linecap="round" stroke="#4550E5" fill="none" stroke-linejoin="round"><use transform="matrix(.48098-.87673.87672.48098-21.97 82.5)" xlink:href="#a"/><path d="M69.59 46.27l.67.37"/><path d="M63.33 42.87l4.29 2.42"/></g><path fill="#FFF" stroke="#4550E5" stroke-linejoin="round" d="M22.88 31.07l0-.01c.01-1.16.96-2.09 2.12-2.07h23l-.01 0c1.15-.01 2.09.93 2.09 2.08v16.2l-.01 0c-.01 1.14-.95 2.07-2.09 2.06 -.01-.01-.01-.01-.01-.01h-7.35v2.31l0-.01c-.01.49-.3.93-.75 1.12l-.01 0c-.46.18-.97.07-1.31-.28l-3.17-3.16H24.95l-.01-.001c-1.16-.01-2.09-.94-2.09-2.1Z"/><use fill="#FFF" xlink:href="#b"/><g stroke-linecap="round" stroke="#4550E5" fill="none" stroke-linejoin="round"><use xlink:href="#b"/><path d="M46.43 24.76l0 3.62"/></g><path fill="#4550E5" d="M46.43 32.1l-.01 0c.11-.03.22.04.25.15 .02.11-.05.22-.16.25 -.04 0-.07 0-.1 0l-.01 0c-.12 0-.21-.08-.21-.19 -.01-.01-.01-.01-.01-.02l-.001 0c-.01-.12.09-.22.2-.22m0-1l-.01 0c-.67 0-1.21.54-1.21 1.21 0 .66.54 1.21 1.21 1.2 .66-.01 1.21-.55 1.2-1.22v0c0-.67-.55-1.21-1.21-1.21Z"/><g stroke-linecap="round" stroke="#4550E5" fill="none" stroke-linejoin="round"><path d="M27.71 36.23l11.47 0"/><path d="M27.71 39.85l15.7 0"/><path d="M27.71 43.47l15.7 0"/></g><path fill="#FFF" stroke="#4550E5" stroke-linejoin="round" d="M50.47 74.2a.6.6 0 1 0 0 1.2 .6.6 0 1 0 0-1.21Z"/></svg>