<?xml version="1.0" encoding="UTF-8"?>
<svg width="89px" height="68px" viewBox="0 0 89 68" version="1.1" xmlns="http://www.w3.org/2000/svg" xmlns:xlink="http://www.w3.org/1999/xlink">
    <title>illustrationTransporter</title>
    <g id="Page-1" stroke="none" stroke-width="1" fill="none" fill-rule="evenodd">
        <g id="illustrationTransporter" transform="translate(1.000000, 0.000000)">
            <g id="Background">
                <path d="M84.0000124,40 C83.9984701,23.6646106 74.0640168,8.97150733 58.9050828,2.88449909 C43.7461489,-3.20250915 26.4090288,0.539804837 15.1106656,12.3377681 C3.81230241,24.1357314 0.823181775,41.6184602 7.56,56.5 L80.43,56.5 C82.7870742,51.3188545 84.0044984,45.6921039 84.0000124,40 L84.0000124,40 Z" id="Path" fill="#F0F2FF" fill-rule="nonzero"></path>
                <line x1="4.5" y1="56.5" x2="82.5" y2="56.5" id="Path" stroke="#4550E5" stroke-linecap="round" stroke-linejoin="round"></line>
                <line x1="0" y1="56.5" x2="2.5" y2="56.5" id="Path" stroke="#4550E5" stroke-linecap="round" stroke-linejoin="round"></line>
                <line x1="84.5" y1="56.5" x2="87" y2="56.5" id="Path" stroke="#4550E5" stroke-linecap="round" stroke-linejoin="round"></line>
            </g>
            <g id="Scene" transform="translate(15.000000, 11.000000)">
                <path d="M22.56,3.58 C22.2519586,3.57934759 21.9465794,3.63703032 21.66,3.75 C21.3284666,1.72404687 19.5779005,0.236664614 17.525,0.236664614 C15.4720995,0.236664614 13.7215334,1.72404687 13.39,3.75 C13.0999599,3.6369485 12.7912931,3.57928546 12.48,3.58 C11.2208268,3.73959245 10.2768596,4.81075337 10.2768596,6.08 C10.2768596,7.34924663 11.2208268,8.42040755 12.48,8.58 L22.56,8.58 C23.8191732,8.42040755 24.7631404,7.34924663 24.7631404,6.08 C24.7631404,4.81075337 23.8191732,3.73959245 22.56,3.58 L22.56,3.58 Z" id="Path" stroke="#4550E5" fill="#FFFFFF" fill-rule="nonzero" stroke-linejoin="round"></path>
                <path d="M22.56,3.58 C22.2519586,3.57934759 21.9465794,3.63703032 21.66,3.75 C21.3284666,1.72404687 19.5779005,0.236664614 17.525,0.236664614 C15.4720995,0.236664614 13.7215334,1.72404687 13.39,3.75 C13.0999599,3.6369485 12.7912931,3.57928546 12.48,3.58 C11.2208268,3.73959245 10.2768596,4.81075337 10.2768596,6.08 C10.2768596,7.34924663 11.2208268,8.42040755 12.48,8.58 L22.56,8.58 C23.8191732,8.42040755 24.7631404,7.34924663 24.7631404,6.08 C24.7631404,4.81075337 23.8191732,3.73959245 22.56,3.58 L22.56,3.58 Z" id="Path" stroke="#4550E5" fill="#FFFFFF" fill-rule="nonzero" stroke-linejoin="round"></path>
                <path d="M54.75,31.23 L62.57,31.23 L62.57,43.83 L57.75,43.83 C55.540861,43.83 53.75,42.039139 53.75,39.83 L53.75,32.23 C53.75,31.6777153 54.1977153,31.23 54.75,31.23 Z" id="Path" stroke="#4550E5" fill="#FFFFFF" fill-rule="nonzero" stroke-linejoin="round" transform="translate(58.160000, 37.530000) rotate(180.000000) translate(-58.160000, -37.530000) "></path>
                <path d="M34.85,28.71 L52.75,28.71 C53.3022847,28.71 53.75,29.1577153 53.75,29.71 L53.75,42.83 C53.75,43.3822847 53.3022847,43.83 52.75,43.83 L35.85,43.83 C35.2977153,43.83 34.85,43.3822847 34.85,42.83 L34.85,28.71 Z" id="Path" fill="#D6DAFF" fill-rule="nonzero" transform="translate(44.300000, 36.270000) rotate(180.000000) translate(-44.300000, -36.270000) "></path>
                <path d="M34.85,28.71 L52.75,28.71 C53.3022847,28.71 53.75,29.1577153 53.75,29.71 L53.75,42.83 C53.75,43.3822847 53.3022847,43.83 52.75,43.83 L35.85,43.83 C35.2977153,43.83 34.85,43.3822847 34.85,42.83 L34.85,28.71 Z" id="Path" stroke="#4550E5" stroke-linejoin="round" transform="translate(44.300000, 36.270000) rotate(180.000000) translate(-44.300000, -36.270000) "></path>
                <path d="M34.85,41.31 L52.75,41.31 C53.3022847,41.31 53.75,41.7577153 53.75,42.31 L53.75,43.83 L34.85,43.83 L34.85,41.31 Z" id="Path" stroke="#4550E5" fill="#FFFFFF" fill-rule="nonzero" stroke-linejoin="round" transform="translate(44.300000, 42.570000) rotate(180.000000) translate(-44.300000, -42.570000) "></path>
                <path d="M37.37,43.82 C37.37,44.8392449 37.9839783,45.7581283 38.9256378,46.1481764 C39.8672972,46.5382245 40.9511941,46.322624 41.6719091,45.6019091 C42.392624,44.8811941 42.6082245,43.7972972 42.2181764,42.8556378 C41.8281283,41.9139783 40.9092449,41.3 39.89,41.3 C38.4982424,41.3 37.37,42.4282424 37.37,43.82 Z" id="Path" fill="#D6DAFF" fill-rule="nonzero"></path>
                <path d="M37.37,43.82 C37.37,44.8392449 37.9839783,45.7581283 38.9256378,46.1481764 C39.8672972,46.5382245 40.9511941,46.322624 41.6719091,45.6019091 C42.392624,44.8811941 42.6082245,43.7972972 42.2181764,42.8556378 C41.8281283,41.9139783 40.9092449,41.3 39.89,41.3 C38.4982424,41.3 37.37,42.4282424 37.37,43.82 Z" id="Path" stroke="#4550E5" stroke-linejoin="round"></path>
                <path d="M51.23,43.82 C51.23,44.8392449 51.8439783,45.7581283 52.7856378,46.1481764 C53.7272972,46.5382245 54.8111941,46.322624 55.5319091,45.6019091 C56.252624,44.8811941 56.4682245,43.7972972 56.0781764,42.8556378 C55.6881283,41.9139783 54.7692449,41.3 53.75,41.3 C52.3582424,41.3 51.23,42.4282424 51.23,43.82 L51.23,43.82 Z" id="Path" fill="#D6DAFF" fill-rule="nonzero"></path>
                <path d="M51.23,43.82 C51.23,44.8392449 51.8439783,45.7581283 52.7856378,46.1481764 C53.7272972,46.5382245 54.8111941,46.322624 55.5319091,45.6019091 C56.252624,44.8811941 56.4682245,43.7972972 56.0781764,42.8556378 C55.6881283,41.9139783 54.7692449,41.3 53.75,41.3 C52.3582424,41.3 51.23,42.4282424 51.23,43.82 L51.23,43.82 Z" id="Path" stroke="#4550E5" stroke-linejoin="round"></path>
                <path d="M57.37,33.75 L59.1,33.75 C59.6522847,33.75 60.1,34.1977153 60.1,34.75 L60.1,36.53 C60.1,36.7952165 59.9946432,37.0495704 59.8071068,37.2371068 C59.6195704,37.4246432 59.3652165,37.53 59.1,37.53 L58.32,37.53 C57.2154305,37.53 56.32,36.6345695 56.32,35.53 L56.32,34.75 C56.32,34.1977153 56.7677153,33.75 57.32,33.75 L57.37,33.75 Z" id="Path" fill="#D6DAFF" fill-rule="nonzero" transform="translate(58.210000, 35.640000) rotate(-180.000000) translate(-58.210000, -35.640000) "></path>
                <path d="M58,33.74 L57.37,33.74 C56.8177153,33.74 56.37,34.1877153 56.37,34.74 L56.37,36.42 C56.3708399,36.7010077 56.4821912,36.9704061 56.68,37.17 L59.53,34.31 C59.1183802,33.9204107 58.5661892,33.7146925 58,33.74 L58,33.74 Z" id="Path" fill="#FFFFFF" fill-rule="nonzero"></path>
                <path d="M57.37,33.75 L59.1,33.75 C59.6522847,33.75 60.1,34.1977153 60.1,34.75 L60.1,36.53 C60.1,36.7952165 59.9946432,37.0495704 59.8071068,37.2371068 C59.6195704,37.4246432 59.3652165,37.53 59.1,37.53 L58.32,37.53 C57.2154305,37.53 56.32,36.6345695 56.32,35.53 L56.32,34.75 C56.32,34.1977153 56.7677153,33.75 57.32,33.75 L57.37,33.75 Z" id="Path" stroke="#4550E5" stroke-linejoin="round" transform="translate(58.210000, 35.640000) rotate(-180.000000) translate(-58.210000, -35.640000) "></path>
                <path d="M61.1,40.68 L62.62,40.68 L62.62,42.83 C62.62,43.3822847 62.1722847,43.83 61.62,43.83 L60.1,43.83 L60.1,41.68 C60.1,41.1277153 60.5477153,40.68 61.1,40.68 Z" id="Path" stroke="#4550E5" fill="#FFFFFF" fill-rule="nonzero" stroke-linejoin="round" transform="translate(61.360000, 42.255000) rotate(180.000000) translate(-61.360000, -42.255000) "></path>
                <ellipse id="Oval" fill="#F0F2FF" fill-rule="nonzero" cx="15.63" cy="54.82" rx="14.7" ry="1.58"></ellipse>
                <rect id="Rectangle" fill="#FFFFFF" fill-rule="nonzero" x="0.83" y="22.27" width="30.24" height="31.5" rx="1"></rect>
                <rect id="Rectangle" stroke="#4550E5" stroke-linecap="round" stroke-linejoin="round" x="0.83" y="22.27" width="30.24" height="31.5" rx="1"></rect>
                <path d="M12.17,22.27 L19.73,22.27 L19.73,33.87 C19.73,34.4222847 19.2822847,34.87 18.73,34.87 L13.17,34.87 C12.6177153,34.87 12.17,34.4222847 12.17,33.87 L12.17,22.27 Z" id="Path" stroke="#4550E5" fill="#D6DAFF" fill-rule="nonzero" stroke-linecap="round" stroke-linejoin="round"></path>
                <line x1="7.13" y1="44.95" x2="7.13" y2="50.62" id="Path" stroke="#4550E5" stroke-linecap="round" stroke-linejoin="round"></line>
                <polyline id="Path" stroke="#4550E5" stroke-linecap="round" stroke-linejoin="round" points="4.61 47.47 7.13 44.95 9.65 47.47"></polyline>
                <line x1="14.69" y1="44.95" x2="14.69" y2="50.62" id="Path" stroke="#4550E5" stroke-linecap="round" stroke-linejoin="round"></line>
                <polyline id="Path" stroke="#4550E5" stroke-linecap="round" stroke-linejoin="round" points="12.17 47.47 14.69 44.95 17.21 47.47"></polyline>
            </g>
        </g>
    </g>
</svg>